<svg width="40" height="40" viewBox="0 0 40 40" fill="none" xmlns="http://www.w3.org/2000/svg">
<g clip-path="url(#clip0_4009_2088)">
<path d="M26.125 6.80866C25.4317 6.80827 24.7415 6.9 24.0723 7.08147C23.8719 7.1089 23.6716 7.14499 23.4712 7.19262L10.9487 10.1604C12.1 9.90433 13.294 9.91035 14.4426 10.1781C15.5912 10.4458 16.6651 10.9684 17.5851 11.7073C18.505 12.4462 19.2476 13.3825 19.7578 14.4472C20.2681 15.5118 20.5332 16.6776 20.5334 17.8586C20.5319 18.4168 20.471 18.9733 20.3517 19.5186C20.3517 19.533 20.3517 19.5475 20.3517 19.5619L19.1236 25.7501C18.8248 27.3783 19.1778 29.0587 20.1062 30.4284C21.0346 31.7981 22.4639 32.747 24.0853 33.0701C25.7231 33.3958 27.423 33.0566 28.8112 32.1273C30.1993 31.198 31.162 29.7546 31.4874 28.1146L33.7578 16.6547C33.7578 16.6302 33.7578 16.6056 33.7679 16.5796C34.0532 15.4183 34.0709 14.2072 33.8199 13.038C33.5688 11.8687 33.0555 10.772 32.3188 9.83064C31.5821 8.88933 30.6413 8.12811 29.5675 7.60456C28.4936 7.08101 27.315 6.80885 26.1207 6.80866H26.125Z" fill="url(#paint0_linear_4009_2088)"/>
<path d="M12.657 9.97279C12.0825 9.97328 11.5097 10.0362 10.9488 10.1604L13.3215 9.59892L10.8464 10.185C9.24216 10.5897 7.86142 11.6104 7.00273 13.0265C6.14403 14.4425 5.87638 16.14 6.25763 17.7521C6.63888 19.3642 7.63841 20.7612 9.04011 21.6412C10.4418 22.5212 12.1331 22.8134 13.7482 22.4546L20.0764 20.9534L20.3518 19.5619C20.3518 19.5475 20.3518 19.533 20.3518 19.5186C20.5997 18.3683 20.5872 17.1771 20.3154 16.0323C20.0436 14.8875 19.5193 13.8182 18.781 12.9027C18.0426 11.9873 17.109 11.249 16.0485 10.742C14.9881 10.235 13.8277 9.97216 12.6526 9.97279H12.657Z" fill="url(#paint1_linear_4009_2088)"/>
</g>
<defs>
<linearGradient id="paint0_linear_4009_2088" x1="20.5766" y1="32.3584" x2="22.7925" y2="9.38153" gradientUnits="userSpaceOnUse">
<stop stop-color="#FF0094"/>
<stop offset="1" stop-color="#7D1DDE"/>
</linearGradient>
<linearGradient id="paint1_linear_4009_2088" x1="6.00148" y1="16.112" x2="20.5334" y2="16.112" gradientUnits="userSpaceOnUse">
<stop stop-color="#00F4D3"/>
<stop offset="0.28" stop-color="#02C4C3"/>
<stop offset="0.5" stop-color="#0297C7"/>
<stop offset="0.68" stop-color="#0277CB"/>
<stop offset="0.87" stop-color="#0059B5"/>
<stop offset="1" stop-color="#01397E"/>
</linearGradient>
<clipPath id="clip0_4009_2088">
<rect width="28" height="26.3827" fill="white" transform="translate(6 6.80865)"/>
</clipPath>
</defs>
</svg>
